<svg xmlns="http://www.w3.org/2000/svg" viewBox="0 0 500 500">
  <g transform="translate(0.000000,500.000000) scale(0.100000,-0.100000)" fill="#000000">
<path d="M1246 3197 c-3 -29 -8 -266 -11 -527 -3 -261 -8 -492 -11 -512 -6
-38 -6 -38 85 -38 50 0 91 2 91 4 0 16 82 425 88 440 7 17 12 13 31 -27 74
-152 333 -270 763 -347 224 -40 548 -70 756 -70 152 0 152 0 152 60 0 60 0 60
-72 60 -80 0 -354 23 -487 40 -293 38 -556 109 -687 186 -65 38 -124 107 -124
145 0 105 107 180 384 268 239 76 495 118 909 147 87 6 87 6 87 41 0 35 0 35
-77 29 -43 -3 -134 -8 -203 -11 -691 -31 -1245 -164 -1375 -329 -33 -41 -32
-33 9 174 18 91 31 168 29 171 -1 4 -40 23 -85 42 -46 19 -120 51 -165 70 -82
36 -82 36 -87 -16z"/>
<path d="M1217 1897 c-11 -189 -11 -199 15 -195 17 2 24 12 30 43 18 91 14 87
51 50 37 -37 128 -70 227 -81 91 -10 75 15 -26 41 -92 24 -119 38 -135 66 -21
41 56 86 194 114 41 8 23 25 -21 19 -91 -13 -180 -37 -220 -60 -43 -25 -43
-25 -36 25 6 49 6 49 -33 70 -40 20 -40 20 -46 -92z"/>
<path d="M2870 1845 c0 -145 0 -145 35 -145 35 0 35 0 35 145 0 145 0 145 -35
145 -35 0 -35 0 -35 -145z"/>
<path d="M2990 1970 c0 -16 7 -20 35 -20 28 0 35 4 35 20 0 16 -7 20 -35 20
-28 0 -35 -4 -35 -20z"/>
<path d="M3570 1861 c0 -164 -2 -161 152 -161 136 0 148 8 148 103 0 90 -14
101 -136 105 -94 4 -94 4 -94 43 0 38 -1 39 -35 39 -35 0 -35 0 -35 -129z
m225 -56 c0 -50 0 -50 -77 -53 -78 -3 -78 -3 -78 53 0 56 0 56 78 53 77 -3 77
-3 77 -53z"/>
<path d="M2000 1945 c0 -28 -4 -35 -20 -35 -14 0 -20 -7 -20 -24 0 -15 7 -26
20 -29 18 -5 20 -14 20 -81 0 -76 0 -76 30 -76 29 0 29 0 32 78 3 72 5 77 26
80 31 5 27 46 -5 50 -19 3 -23 10 -23 38 0 31 -2 34 -30 34 -28 0 -30 -3 -30
-35z"/>
<path d="M2660 1961 c-93 -20 -154 -46 -184 -80 -59 -65 84 -150 298 -176 53
-7 58 -6 54 11 -2 14 -19 21 -68 31 -99 20 -155 41 -180 68 -19 21 -22 29 -13
48 15 31 89 66 186 86 42 8 77 19 77 23 0 13 -80 8 -170 -11z"/>
<path d="M1644 1895 c-11 -28 8 -34 111 -37 81 -2 100 -6 100 -18 0 -12 -18
-16 -94 -18 -52 -1 -101 -8 -108 -14 -16 -13 -17 -80 -1 -96 8 -8 50 -12 125
-12 142 0 153 8 153 103 0 94 -11 101 -161 105 -103 3 -120 2 -125 -13z m211
-125 c0 -11 -15 -16 -64 -18 -64 -3 -89 6 -76 28 4 7 32 10 73 8 52 -2 67 -6
67 -18z"/>
<path d="M2144 1895 c-11 -28 8 -34 111 -37 81 -2 100 -6 100 -18 0 -12 -18
-16 -94 -18 -52 -1 -101 -8 -108 -14 -16 -13 -17 -80 -1 -96 8 -8 50 -12 125
-12 100 0 115 2 133 20 28 28 28 127 1 161 -18 22 -27 24 -140 27 -105 3 -122
2 -127 -13z m211 -125 c0 -12 -16 -16 -72 -18 -57 -2 -73 0 -73 11 0 24 13 28
80 25 50 -2 65 -6 65 -18z"/>
<path d="M2990 1805 c0 -105 0 -105 35 -105 35 0 35 0 35 105 0 105 0 105 -35
105 -35 0 -35 0 -35 -105z"/>
<path d="M3110 1805 c0 -105 0 -105 35 -105 35 0 35 0 35 80 0 80 0 80 50 80
50 0 50 0 50 -80 0 -80 0 -80 35 -80 35 0 35 0 35 80 0 80 0 80 45 80 44 0 44
0 47 -77 3 -78 3 -78 36 -81 33 -3 33 -3 30 90 -4 121 2 118 -225 118 -173 0
-173 0 -173 -105z"/>
  </g>
  <g transform="translate(0.000000,500.000000) scale(0.100000,-0.100000)" fill="#1d4ed8">
<path d="M2740 2915 c-128 -13 -356 -54 -445 -81 -65 -20 -109 -37 -242 -93
-39 -17 -80 -31 -90 -31 -10 0 -33 -14 -51 -30 -50 -46 -42 -78 28 -112 68
-33 136 -46 416 -78 133 -15 488 -12 633 5 148 18 228 38 267 70 29 23 29 23
6 48 -35 37 -122 52 -294 50 -137 -1 -218 -13 -218 -33 0 -12 23 -28 53 -35
27 -7 39 8 15 18 -10 4 -9 8 2 17 23 17 269 9 298 -10 119 -78 -303 -139 -663
-96 -186 22 -293 55 -315 96 -15 27 1 54 48 83 204 126 688 219 1057 204 77
-4 156 -9 175 -13 26 -5 32 -4 24 5 -28 31 -458 41 -704 16z"/>
<path d="M2815 2740 c-193 -23 -346 -81 -329 -125 16 -41 189 -70 357 -61 155
9 209 28 158 56 -26 13 -73 14 -51 0 34 -21 -8 -32 -129 -31 -135 1 -191 16
-191 49 0 24 46 44 156 67 120 25 494 23 630 -4 152 -29 214 -60 214 -107 0
-64 -222 -158 -475 -203 -201 -35 -370 -43 -595 -28 -85 6 -85 6 -20 -8 105
-24 462 -31 590 -11 318 47 482 89 639 163 64 30 131 88 131 112 0 44 -71 79
-225 112 -77 17 -139 20 -440 24 -192 2 -381 0 -420 -5z"/>
<path d="M2438 2363 c6 -2 18 -2 25 0 6 3 1 5 -13 5 -14 0 -19 -2 -12 -5z"/>
  </g>
</svg>
